<svg xmlns="http://www.w3.org/2000/svg" width="1200" height="750" viewBox="0 0 1200 750"><defs><linearGradient id="g" x1="0%" y1="0%" x2="100%" y2="100%"><stop offset="0%" style="stop-color:#fafafa"/><stop offset="100%" style="stop-color:#f0f0f5"/></linearGradient></defs><rect fill="url(#g)" width="1200" height="750"/><rect x="200" y="60" width="800" height="630" rx="16" fill="white" stroke="#e5e5ea" stroke-width="1"/><rect x="240" y="100" width="120" height="28" rx="14" fill="rgba(138,43,226,0.1)"/><rect x="240" y="150" width="500" height="32" rx="4" fill="#2d2d2d"/><rect x="240" y="200" width="720" height="12" rx="4" fill="#d1d1d6"/><rect x="240" y="224" width="680" height="12" rx="4" fill="#d1d1d6"/><rect x="240" y="248" width="600" height="12" rx="4" fill="#d1d1d6"/><rect x="240" y="290" width="720" height="200" rx="12" fill="#1e1e2e"/><rect x="270" y="310" width="100" height="12" rx="3" fill="#c792ea"/><rect x="380" y="310" width="60" height="12" rx="3" fill="#82aaff"/><rect x="270" y="334" width="200" height="12" rx="3" fill="#a6accd"/><rect x="270" y="358" width="300" height="12" rx="3" fill="#89ddff"/><rect x="270" y="382" width="250" height="12" rx="3" fill="#c3e88d"/><rect x="270" y="406" width="180" height="12" rx="3" fill="#c792ea"/><rect x="270" y="430" width="280" height="12" rx="3" fill="#ffcb6b"/><rect x="240" y="520" width="720" height="12" rx="4" fill="#d1d1d6"/><rect x="240" y="544" width="650" height="12" rx="4" fill="#d1d1d6"/><rect x="240" y="568" width="500" height="12" rx="4" fill="#d1d1d6"/></svg>