<svg xmlns="http://www.w3.org/2000/svg" width="1200" height="750" viewBox="0 0 1200 750"><defs><linearGradient id="g" x1="0%" y1="0%" x2="100%" y2="100%"><stop offset="0%" style="stop-color:#0d1117"/><stop offset="100%" style="stop-color:#161b22"/></linearGradient></defs><rect fill="url(#g)" width="1200" height="750"/><rect x="40" y="40" width="260" height="120" rx="16" fill="rgba(138,43,226,0.1)" stroke="rgba(138,43,226,0.2)" stroke-width="1"/><text x="80" y="80" font-family="system-ui" font-size="14" fill="rgba(255,255,255,0.5)">Calories</text><text x="80" y="120" font-family="system-ui" font-size="32" font-weight="bold" fill="rgba(138,43,226,0.8)">2,450</text><rect x="320" y="40" width="260" height="120" rx="16" fill="rgba(0,206,209,0.1)" stroke="rgba(0,206,209,0.2)" stroke-width="1"/><text x="360" y="80" font-family="system-ui" font-size="14" fill="rgba(255,255,255,0.5)">Steps</text><text x="360" y="120" font-family="system-ui" font-size="32" font-weight="bold" fill="rgba(0,206,209,0.8)">12,847</text><rect x="600" y="40" width="260" height="120" rx="16" fill="rgba(76,175,80,0.1)" stroke="rgba(76,175,80,0.2)" stroke-width="1"/><rect x="880" y="40" width="280" height="120" rx="16" fill="rgba(255,152,0,0.1)" stroke="rgba(255,152,0,0.2)" stroke-width="1"/><rect x="40" y="190" width="820" height="360" rx="16" fill="rgba(255,255,255,0.03)" stroke="rgba(255,255,255,0.08)" stroke-width="1"/><polyline points="80,480 200,420 320,440 440,350 560,380 680,300 800,320" fill="none" stroke="rgba(138,43,226,0.6)" stroke-width="3"/><polyline points="80,490 200,460 320,470 440,400 560,430 680,370 800,350" fill="none" stroke="rgba(0,206,209,0.4)" stroke-width="2"/><rect x="880" y="190" width="280" height="360" rx="16" fill="rgba(255,255,255,0.03)" stroke="rgba(255,255,255,0.08)" stroke-width="1"/><rect x="40" y="570" width="1120" height="140" rx="16" fill="rgba(255,255,255,0.03)" stroke="rgba(255,255,255,0.08)" stroke-width="1"/></svg>